<?xml version="1.0" encoding="UTF-8" standalone="no"?>
<!DOCTYPE svg PUBLIC "-//W3C//DTD SVG 1.1//EN" "http://www.w3.org/Graphics/SVG/1.1/DTD/svg11.dtd">
<svg version="1.1" xmlns="http://www.w3.org/2000/svg" xmlns:xlink="http://www.w3.org/1999/xlink" preserveAspectRatio="xMidYMid meet" viewBox="0 0 640 640" width="128" height="128"><defs><path d="M147.25 279L143.82 269.56L140.93 260.09L138.59 250.58L136.78 241.07L135.48 231.56L134.7 222.07L134.41 212.62L134.61 203.22L135.3 193.89L136.45 184.65L138.07 175.51L140.13 166.49L142.64 157.6L145.58 148.87L148.94 140.3L152.71 131.91L156.88 123.72L161.44 115.75L166.39 108.01L171.71 100.52L177.39 93.29L183.43 86.34L189.8 79.68L196.52 73.34L203.55 67.33L210.9 61.66L218.55 56.35L226.5 51.42L234.73 46.88L243.24 42.75L252.01 39.05L261.03 35.78L270.31 32.98L279.81 30.65L289.54 28.81L299.49 27.47L309.65 26.66L320 26.38L330.35 26.66L340.51 27.47L350.46 28.81L360.19 30.65L369.69 32.98L378.97 35.78L387.99 39.05L396.76 42.75L405.27 46.88L413.5 51.42L421.45 56.35L429.1 61.66L436.45 67.33L443.48 73.34L450.2 79.68L456.57 86.34L462.61 93.29L468.29 100.52L473.61 108.01L478.56 115.75L483.12 123.72L487.29 131.91L491.06 140.3L494.42 148.87L497.36 157.6L499.87 166.49L501.93 175.51L503.55 184.65L504.7 193.89L505.39 203.22L505.59 212.62L505.3 222.07L504.52 231.56L503.22 241.07L501.41 250.58L499.07 260.09L496.18 269.56L492.75 279L488.76 288.37L484.21 297.67L320 611.4L155.79 297.67L151.24 288.37L147.25 279Z" id="a2bsLxRQb9"></path><path d="M254.4 137.47L398.37 137.47L398.37 339.41L254.4 339.41L254.4 137.47Z" id="c8GkjFdNK"></path><path d="M295.53 175.32L357.23 175.32L357.23 224.26L295.53 224.26L295.53 175.32Z" id="d16dovqzXW"></path><path d="M297.14 247.67L355.62 247.67L355.62 260.82L297.14 260.82L297.14 247.67Z" id="bWoP9ZWAL"></path><path d="M373.57 207.08L380.37 207.08L380.37 222.71L373.57 222.71L373.57 207.08Z" id="a3cr17gH3X"></path></defs><g><g><g><use xlink:href="#a2bsLxRQb9" opacity="1" fill="#14a5f0" fill-opacity="1"></use><g><use xlink:href="#a2bsLxRQb9" opacity="1" fill-opacity="0" stroke="#000000" stroke-width="16" stroke-opacity="1"></use></g></g><g><use xlink:href="#c8GkjFdNK" opacity="1" fill="#ffffff" fill-opacity="0"></use><g><use xlink:href="#c8GkjFdNK" opacity="1" fill-opacity="0" stroke="#ffffff" stroke-width="16" stroke-opacity="1"></use></g></g><g><use xlink:href="#d16dovqzXW" opacity="1" fill="#774545" fill-opacity="0"></use><g><use xlink:href="#d16dovqzXW" opacity="1" fill-opacity="0" stroke="#ffffff" stroke-width="10" stroke-opacity="1"></use></g></g><g><use xlink:href="#bWoP9ZWAL" opacity="1" fill="#ffffff" fill-opacity="1"></use></g><g><use xlink:href="#a3cr17gH3X" opacity="1" fill="#ffffff" fill-opacity="1"></use></g></g></g></svg>