<?xml version="1.0" encoding="UTF-8" standalone="no"?>
<!DOCTYPE svg PUBLIC "-//W3C//DTD SVG 1.1//EN" "http://www.w3.org/Graphics/SVG/1.1/DTD/svg11.dtd">
<svg version="1.1" xmlns="http://www.w3.org/2000/svg" xmlns:xlink="http://www.w3.org/1999/xlink" preserveAspectRatio="xMidYMid meet" viewBox="0 0 640 640" width="128" height="128"><defs><path d="M147.25 279L143.82 269.56L140.93 260.09L138.59 250.58L136.78 241.07L135.48 231.56L134.7 222.07L134.41 212.62L134.61 203.22L135.3 193.89L136.45 184.65L138.07 175.51L140.13 166.49L142.64 157.6L145.58 148.87L148.94 140.3L152.71 131.91L156.88 123.72L161.44 115.75L166.39 108.01L171.71 100.52L177.39 93.29L183.43 86.34L189.8 79.68L196.52 73.34L203.55 67.33L210.9 61.66L218.55 56.35L226.5 51.42L234.73 46.88L243.24 42.75L252.01 39.05L261.03 35.78L270.31 32.98L279.81 30.65L289.54 28.81L299.49 27.47L309.65 26.66L320 26.38L330.35 26.66L340.51 27.47L350.46 28.81L360.19 30.65L369.69 32.98L378.97 35.78L387.99 39.05L396.76 42.75L405.27 46.88L413.5 51.42L421.45 56.35L429.1 61.66L436.45 67.33L443.48 73.34L450.2 79.68L456.57 86.34L462.61 93.29L468.29 100.52L473.61 108.01L478.56 115.75L483.12 123.72L487.29 131.91L491.06 140.3L494.42 148.87L497.36 157.6L499.87 166.49L501.93 175.51L503.55 184.65L504.7 193.89L505.39 203.22L505.59 212.62L505.3 222.07L504.52 231.56L503.22 241.07L501.41 250.58L499.07 260.09L496.18 269.56L492.75 279L488.76 288.37L484.21 297.67L320 611.4L155.79 297.67L151.24 288.37L147.25 279Z" id="f1T0cVom1z"></path><path d="M412.43 179.41L412.43 297.09L396.12 297.09L396.12 282.37L243.99 282.37L243.99 297.09L227.68 297.09L227.68 179.41L189.86 179.41L189.86 155.89L450.14 155.89L450.14 179.41L412.43 179.41ZM396.12 270.23L396.12 232.98L243.99 232.98L243.99 270.23L396.12 270.23ZM396.12 220.84L396.12 179.41L243.99 179.41L243.99 220.84L396.12 220.84Z" id="b2D9nZNj3B"></path></defs><g><g><g><use xlink:href="#f1T0cVom1z" opacity="1" fill="#FF5722" fill-opacity="1"></use><g><use xlink:href="#f1T0cVom1z" opacity="1" fill-opacity="0" stroke="#000000" stroke-width="16" stroke-opacity="1"></use></g></g><g><use xlink:href="#b2D9nZNj3B" opacity="1" fill="#ffffff" fill-opacity="1"></use></g></g></g></svg>