<?xml version="1.0" encoding="UTF-8" standalone="no"?>
<!DOCTYPE svg PUBLIC "-//W3C//DTD SVG 1.1//EN" "http://www.w3.org/Graphics/SVG/1.1/DTD/svg11.dtd">
<svg version="1.1" xmlns="http://www.w3.org/2000/svg" xmlns:xlink="http://www.w3.org/1999/xlink" preserveAspectRatio="xMidYMid meet" viewBox="0 0 640 640" width="128" height="128"><defs><path d="M143.82 269.56L140.93 260.09L138.59 250.58L136.78 241.07L135.48 231.56L134.7 222.07L134.41 212.62L134.61 203.22L135.3 193.89L136.45 184.65L138.07 175.51L140.13 166.49L142.64 157.6L145.58 148.87L148.94 140.3L152.71 131.91L156.88 123.72L161.44 115.75L166.39 108.01L171.71 100.52L177.39 93.29L183.43 86.34L189.8 79.68L196.52 73.34L203.55 67.33L210.9 61.66L218.55 56.35L226.5 51.42L234.73 46.88L243.24 42.75L252.01 39.05L261.03 35.78L270.31 32.98L279.81 30.65L289.54 28.81L299.49 27.47L309.65 26.66L320 26.38L330.35 26.66L340.51 27.47L350.46 28.81L360.19 30.65L369.69 32.98L378.97 35.78L387.99 39.05L396.76 42.75L405.27 46.88L413.5 51.42L421.45 56.35L429.1 61.66L436.45 67.33L443.48 73.34L450.2 79.68L456.57 86.34L462.61 93.29L468.29 100.52L473.61 108.01L478.56 115.75L483.12 123.72L487.29 131.91L491.06 140.3L494.42 148.87L497.36 157.6L499.87 166.49L501.93 175.51L503.55 184.65L504.7 193.89L505.39 203.22L505.59 212.62L505.3 222.07L504.52 231.56L503.22 241.07L501.41 250.58L499.07 260.09L496.18 269.56L492.75 279L488.76 288.37L484.21 297.67L320 611.4L155.79 297.67L151.24 288.37L147.25 279L143.82 269.56Z" id="c2Zvp8JgY5"></path><path d="" id="a1AKypHXhu"></path><path d="" id="aeA9fIdBl"></path><path d="M361.75 128.07C384.72 128.07 403.33 146.68 403.33 169.65C403.33 197.5 403.33 264.75 403.33 298.92C403.33 304.44 398.86 308.92 393.33 308.92C362 308.92 278 308.92 246.67 308.92C241.14 308.92 236.67 304.44 236.67 298.92C236.67 264.75 236.67 195.9 236.67 167.64C236.67 145.79 254.38 128.07 276.24 128.07C301.66 128.07 336.74 128.07 361.75 128.07Z" id="a3C8DYUZl"></path><path d="M384.71 303.96C388.53 303.96 391.63 307.05 391.63 310.88C391.63 318.43 391.63 334.16 391.63 341.71C391.63 345.54 388.53 348.64 384.71 348.64C377.44 348.64 362.56 348.64 355.29 348.64C351.47 348.64 348.37 345.54 348.37 341.71C348.37 334.16 348.37 318.43 348.37 310.88C348.37 307.05 351.47 303.96 355.29 303.96C362.56 303.96 377.44 303.96 384.71 303.96Z" id="a9OW7l2d2c"></path><path d="M285.49 303.96C289.31 303.96 292.41 307.05 292.41 310.88C292.41 318.43 292.41 334.16 292.41 341.71C292.41 345.54 289.31 348.64 285.49 348.64C278.22 348.64 263.34 348.64 256.07 348.64C252.25 348.64 249.15 345.54 249.15 341.71C249.15 334.16 249.15 318.43 249.15 310.88C249.15 307.05 252.25 303.96 256.07 303.96C263.34 303.96 278.22 303.96 285.49 303.96Z" id="buqj97ywi"></path><path d="M239.5 150.83L400.5 150.83L400.5 165.73L239.5 165.73L239.5 150.83Z" id="b1EyDQuTCU"></path><path d="M249.15 133.74L290.28 133.74L290.28 152.89L249.15 152.89L249.15 133.74Z" id="i2yPXDXfLs"></path><path d="M348.37 135.23L391.63 135.23L391.63 154.38L348.37 154.38L348.37 135.23Z" id="e4dRU000s2"></path><path d="M216.45 174.88L216.45 224.52C212.08 224.52 209.34 224.52 208.25 224.52C203.38 224.52 199.43 220.57 199.43 215.7C199.43 207.54 199.43 192.41 199.43 184.38C199.43 179.13 203.68 174.88 208.93 174.88C209.93 174.88 212.44 174.88 216.45 174.88Z" id="a4juUUl1E1"></path><path d="M424.18 174.88L424.18 224.52C428.55 224.52 431.29 224.52 432.38 224.52C437.25 224.52 441.2 220.57 441.2 215.7C441.2 207.54 441.2 192.41 441.2 184.38C441.2 179.13 436.95 174.88 431.7 174.88C430.7 174.88 428.19 174.88 424.18 174.88Z" id="a74fQXYA1W"></path><path d="M281.84 281.29C281.84 291.45 273.72 299.7 263.72 299.7C253.72 299.7 245.6 291.45 245.6 281.29C245.6 271.13 253.72 262.88 263.72 262.88C273.72 262.88 281.84 271.13 281.84 281.29Z" id="a2TPXvf3Pg"></path><path d="M394.68 281.29C394.68 291.45 386.56 299.7 376.56 299.7C366.56 299.7 358.44 291.45 358.44 281.29C358.44 271.13 366.56 262.88 376.56 262.88C386.56 262.88 394.68 271.13 394.68 281.29Z" id="aa2c2PyDCD"></path><path d="M280.42 254.31L361.27 254.31L364.82 303.96L274.75 303.96L280.42 254.31Z" id="dQ4J6mzLZ"></path><path d="M249.27 295.29L241.88 288.31L241.88 303.25L247.06 303.25L258.91 303.25L249.27 295.29Z" id="a94C7Q0qgF"></path><path d="M356.95 254.31L400.5 254.31L397.84 268.25L356.95 266.37L356.95 254.31Z" id="abDPwscCo"></path><path d="M281.84 254.31L235.97 254.31L238.63 269.25L279.52 266.37L281.84 254.31Z" id="aC2MOkXIB"></path><path d="M393.11 295.29L400.5 288.31L400.5 303.25L395.32 303.25L383.48 303.25L393.11 295.29Z" id="b3OCXGI2tp"></path></defs><g><g><g><use xlink:href="#c2Zvp8JgY5" opacity="1" fill="#8bc34a" fill-opacity="1"></use><g><use xlink:href="#c2Zvp8JgY5" opacity="1" fill-opacity="0" stroke="#000000" stroke-width="16" stroke-opacity="1"></use></g></g><g><g><use xlink:href="#a1AKypHXhu" opacity="1" fill-opacity="0" stroke="#400c0c" stroke-width="9" stroke-opacity="0"></use></g></g><g><g><use xlink:href="#aeA9fIdBl" opacity="1" fill-opacity="0" stroke="#1b0404" stroke-width="9" stroke-opacity="1"></use></g></g><g><use xlink:href="#a3C8DYUZl" opacity="1" fill="#a20056" fill-opacity="0"></use><g><use xlink:href="#a3C8DYUZl" opacity="1" fill-opacity="0" stroke="#ffffff" stroke-width="16" stroke-opacity="1"></use></g></g><g><use xlink:href="#a9OW7l2d2c" opacity="1" fill="#ffffff" fill-opacity="1"></use></g><g><use xlink:href="#buqj97ywi" opacity="1" fill="#ffffff" fill-opacity="1"></use></g><g><use xlink:href="#b1EyDQuTCU" opacity="1" fill="#ffffff" fill-opacity="1"></use></g><g><use xlink:href="#i2yPXDXfLs" opacity="1" fill="#ffffff" fill-opacity="1"></use></g><g><use xlink:href="#e4dRU000s2" opacity="1" fill="#ffffff" fill-opacity="1"></use></g><g><use xlink:href="#a4juUUl1E1" opacity="1" fill="#ffffff" fill-opacity="0.95"></use><g><use xlink:href="#a4juUUl1E1" opacity="1" fill-opacity="0" stroke="#000000" stroke-width="9" stroke-opacity="0"></use></g></g><g><use xlink:href="#a74fQXYA1W" opacity="1" fill="#ffffff" fill-opacity="0.95"></use><g><use xlink:href="#a74fQXYA1W" opacity="1" fill-opacity="0" stroke="#000000" stroke-width="9" stroke-opacity="0"></use></g></g><g><use xlink:href="#a2TPXvf3Pg" opacity="1" fill="#75224e" fill-opacity="0"></use><g><use xlink:href="#a2TPXvf3Pg" opacity="1" fill-opacity="0" stroke="#ffffff" stroke-width="9" stroke-opacity="1"></use></g></g><g><use xlink:href="#aa2c2PyDCD" opacity="1" fill="#75224d" fill-opacity="0"></use><g><use xlink:href="#aa2c2PyDCD" opacity="1" fill-opacity="0" stroke="#ffffff" stroke-width="9" stroke-opacity="1"></use></g></g><g><use xlink:href="#dQ4J6mzLZ" opacity="1" fill="#ffffff" fill-opacity="1"></use></g><g><use xlink:href="#a94C7Q0qgF" opacity="1" fill="#ffffff" fill-opacity="1"></use></g><g><use xlink:href="#abDPwscCo" opacity="1" fill="#ffffff" fill-opacity="1"></use></g><g><use xlink:href="#aC2MOkXIB" opacity="1" fill="#ffffff" fill-opacity="1"></use></g><g><use xlink:href="#b3OCXGI2tp" opacity="1" fill="#ffffff" fill-opacity="1"></use></g></g></g></svg>